<svg xmlns="http://www.w3.org/2000/svg" viewBox="0 0 327.379 282.609">
    <g style="stroke:currentcolor;stroke-width:.602784;stroke-dasharray:none;stroke-opacity:1">
        <path d="M169.026 8.536 5.445 290.248l326.334.48Zm-.017 11.92 152.456 264.356-305.69-.45z"
              style="stroke:currentcolor;stroke-width:.602784;stroke-dasharray:none;stroke-opacity:1"
              transform="translate(-4.922 -8.177)"/>
        <path d="M170.357 145.152c-22.575 0-43.68 3.959-60.585 10.92s-30.03 16.8-35.385 29.925l-1.01 2.468 1.175 2.394c6.09 12.495 19.215 21.84 35.91 28.455s37.17 10.31 59.115 10.31c22.575 0 43.68-3.958 60.585-10.92 16.905-6.96 30.03-16.8 35.385-29.924l1.011-2.468-1.176-2.394c-6.09-12.495-19.215-21.84-35.91-28.455-16.695-6.583-37.17-10.31-59.115-10.31zm0 11.865c20.58 0 39.795 3.57 54.81 9.482 13.65 5.386 23.31 12.81 28.035 20.37-4.357 7.633-13.965 15.225-27.51 20.79-15.12 6.216-34.86 10.006-56.07 10.006-20.58 0-39.795-3.57-54.81-9.481-13.65-5.387-23.31-12.81-28.035-20.37 4.358-7.634 13.965-15.225 27.51-20.79 15.12-6.216 34.86-10.007 56.07-10.007z"
              style="stroke:currentcolor;stroke-width:.602784;stroke-dasharray:none;stroke-opacity:1"
              transform="translate(-4.922 -8.177)"/>
        <path d="M166.83 153.07a36 34 0 0 0-36 34 36 34 0 0 0 36 34 36 34 0 0 0 36-34 36 34 0 0 0-36-34zm0 5.9c16.8 0 30.1 12.7 30.1 28.1s-13.2 28.1-30.1 28.1c-16.8 0-30.1-12.7-30.1-28.1s13.2-28.1 30.1-28.1z"
              style="stroke:currentcolor;stroke-width:.602784;stroke-dasharray:none;stroke-opacity:1"
              transform="translate(-4.922 -8.177)"/>
        <path d="M166.83 170.07c-9.25 0-17.2 7.3-17.2 16.6 0 9.28 7.95 16.6 17.2 16.6s17.2-7.31 17.2-16.6c0-5.152-2.446-9.696-6.202-12.721a3.66 3.45 0 0 1 .003.12 3.66 3.45 0 0 1-3.66 3.451 3.66 3.45 0 0 1-3.66-3.45 3.66 3.45 0 0 1 1.973-3.062 17.5 17.5 0 0 0-5.654-.938zm0 11.9c3.17 0 5.29 2.21 5.29 4.66s-2.12 4.66-5.29 4.66-5.29-2.21-5.29-4.66 2.12-4.66 5.29-4.66z"
              style="stroke:currentcolor;stroke-width:.602784;stroke-dasharray:none;stroke-opacity:1"
              transform="translate(-4.922 -8.177)"/>
        <g style="stroke:currentcolor;stroke-width:.602784;stroke-dasharray:none;stroke-opacity:1">
            <path d="m166.928 112.105-.84.01c-.003.019.005.066 0 .084-1.537 6.097-2.419 17.626-2.302 30.203.024 2.21.086 4.412.168 6.575v.26l.384-.002q.035 1.317.083 2.62l4.8-.02q.03-1.305.042-2.625l.319-.002.015-.25c.055-2.392.055-4.812.031-7.29-.12-12.053-1.14-23.2-2.7-29.489-.004-.014.004-.059 0-.074zM185.5 113.398c-.02.046-.043.152-.064.2l-.003-.008-.013.053c-1.53 3.446-3.245 9.65-4.642 19.613a188 188 0 0 0-.678 5.396q-.159 1.431-.3 2.875a164 164 0 0 0-.275 3.21q-.01.126-.02.268l-.07 1.017 1.49 1.04.082-1.04.019-.223c.017-.21.038-.426.057-.639q.104-1.156.223-2.331a281 281 0 0 1 .914-7.869c1.306-9.885 2.514-15.32 3.777-20.045zM198.625 117.284c-.018.02-.058.125-.076.147v-.009l-.01.026c-1.398 1.694-4.564 7.025-5.723 19.253a79 79 0 0 0-.272 4.028 74 74 0 0 0-.05 4.336c.013.845.048 1.756.121 2.69.02.273.049.609.098.965.009.066.02.56.233.885l.142.217.757-1.512h.002l.002-.01-.153-1.072.025-.049-.008.01h-.002v.001h-.004c-.011-.009-.017-.063-.023-.103-.017-.113-.03-.268-.044-.449a20 20 0 0 1-.033-.555c.039-.039.086-.058.134-.025.078.054.135.214.163.322q.03.117.04.17c-.003-.034-.01-.1-.016-.18a30 30 0 0 1-.059-1.622v-.009c-.018-1.258.01-2.552.077-3.855.044-.85.107-1.708.18-2.543.812-9.516 3.549-15.963 4.78-18.853zm-4.68 29.267.001.027.004.02h.001a.2.2 0 0 0-.007-.047zM203.693 144.486a191 191 0 0 0-.476 4.129l2.41.303c.22-1.453.424-2.933.61-4.406.102-.806.197-1.616.287-2.418 1.663-6.193 5.439-10.401 7.86-13.022-3.06 1.362-8.138 5.4-10.322 12.546q-.207 1.447-.393 2.914zM180.924 226.869l-1.49 1.04.07 1.016.021.27.055.7a164 164 0 0 0 .52 5.383q.307 2.761.678 5.396c1.397 9.964 3.112 16.166 4.642 19.612l.012.054.003-.008c.021.048.044.154.065.2l.497-1.517c-1.264-4.726-2.471-10.16-3.777-20.046a281.128 281.128 0 0 1-.914-7.869q-.12-1.174-.223-2.33c-.02-.213-.04-.43-.058-.64l-.018-.222zM216.794 149.647q-.102 1.276-.155 2.529l2.33.18a63 63 0 0 0 .343-4.082c.814-3.128 3.886-5.2 5.597-6.431-1.893-.03-6.272 1.278-7.98 5.955a72 72 0 0 0-.168 1.83zM193.088 224.108l-.143.217c-.212.325-.223.82-.232.885-.05.356-.078.692-.098.965a44 44 0 0 0-.122 2.69 74 74 0 0 0 .05 4.335c.058 1.383.152 2.735.273 4.029 1.159 12.228 4.325 17.559 5.723 19.253l.01.026v-.01c.017.023.058.127.076.148l.28-2.204c-1.23-2.89-3.967-9.338-4.78-18.853a73 73 0 0 1-.18-2.543 59 59 0 0 1-.076-3.856v-.009c.01-.649.027-1.2.058-1.623l.017-.18q-.01.054-.04.172c-.029.107-.085.267-.163.322-.048.033-.095.013-.134-.025q.013-.288.033-.556c.014-.18.026-.335.043-.449.006-.038.012-.09.022-.1l.002-.002h.005l.008.01-.024-.048.153-1.073-.002-.009h-.002zm.856 3.271.007-.047q-.002.004-.005.02zM203.693 229.444a191 191 0 0 1-.476-4.129l2.41-.304c.22 1.454.424 2.934.61 4.407.102.806.197 1.616.287 2.418 1.663 6.193 5.439 10.401 7.86 13.022-3.06-1.362-8.138-5.4-10.322-12.546q-.207-1.447-.393-2.914zM216.794 224.283q-.102-1.276-.155-2.529l2.33-.18a63 63 0 0 1 .343 4.082c.814 3.128 3.886 5.2 5.597 6.431-1.893.03-6.272-1.278-7.98-5.955a72 72 0 0 1-.168-1.83zM149.065 117.664l-.496 1.518c1.264 4.728 2.471 10.165 3.777 20.055a281.389 281.389 0 0 1 .914 7.872 205 205 0 0 1 .223 2.332l.058.638.018.223.083 1.04 1.49-1.04-.07-1.016-.021-.27-.055-.701a164 164 0 0 0-.52-5.386q-.307-2.76-.678-5.398c-1.397-9.968-3.113-16.173-4.642-19.62l-.013-.055-.003.008c-.021-.047-.044-.154-.065-.2zM136.365 121.55l-.279 2.206c1.226 2.893 3.951 9.345 4.76 18.868.073.837.135 1.696.179 2.546a59 59 0 0 1 .076 3.858v.01c-.01.649-.027 1.2-.058 1.623l-.016.18q.01-.054.04-.171c.028-.108.084-.268.162-.322.048-.033.095-.014.134.025q-.014.287-.033.556c-.014.181-.026.335-.043.449-.006.04-.013.094-.024.102h-.006l-.005-.006.022.045-.152 1.074.002.01h.002l.753 1.512.142-.217c.21-.325.223-.82.232-.886.05-.356.077-.692.097-.965.074-.935.108-1.847.122-2.692.026-1.46.007-2.915-.051-4.34a79 79 0 0 0-.27-4.03c-1.155-12.238-4.308-17.574-5.7-19.27-.003-.004-.008-.02-.01-.026v.01c-.018-.023-.059-.127-.076-.148zm4.662 29.291-.007.047.004-.02zM130.196 148.586c.175 1.382.334 2.763.476 4.129l-2.41.304c-.22-1.454-.424-2.934-.61-4.407-.102-.806-.197-1.616-.287-2.418-1.663-6.193-5.439-10.401-7.86-13.022 3.06 1.362 8.138 5.4 10.322 12.546q.207 1.447.393 2.914zM117.095 153.747q.101 1.276.155 2.529l-2.33.18a63 63 0 0 1-.343-4.082c-.814-3.128-3.886-5.2-5.597-6.431 1.893-.03 6.272 1.278 7.98 5.955q.095.906.168 1.83zM149.642 223.698l-.083 1.04-.019.223c-.017.209-.038.425-.057.638q-.105 1.157-.223 2.332a281 281 0 0 1-.914 7.872c-1.306 9.89-2.514 15.327-3.777 20.055l.496 1.518c.021-.046.044-.153.065-.2l.003.008.013-.054c1.53-3.447 3.245-9.653 4.642-19.621q.37-2.637.678-5.398a164.556 164.556 0 0 0 .575-6.087q.01-.127.02-.27l.07-1.016zM137.88 220.025l-.754 1.514h-.002l-.002.009.152 1.073-.024.049.008-.01h.005c.011.008.018.062.024.102.017.113.029.268.043.45q.02.268.033.555c-.04.04-.086.059-.133.025-.078-.054-.135-.214-.164-.321a3 3 0 0 1-.039-.172l.017.18c.03.423.047.974.058 1.624v.009a59 59 0 0 1-.077 3.858 73 73 0 0 1-.179 2.546c-.809 9.523-3.534 15.975-4.76 18.868l.28 2.206c.017-.02.058-.125.076-.147v.009l.009-.027c1.392-1.695 4.545-7.03 5.7-19.268.12-1.295.213-2.648.27-4.032.058-1.424.077-2.88.051-4.339a44 44 0 0 0-.121-2.692c-.02-.273-.049-.61-.098-.965-.009-.066-.021-.561-.232-.886zm-.853 3.274-.002-.028-.005-.019zM127.196 225.454c.175-1.382.334-2.763.476-4.129l-2.41-.304c-.22 1.454-.424 2.934-.61 4.407-.102.806-.197 1.616-.287 2.418-1.663 6.193-5.439 10.401-7.86 13.022 3.06-1.362 8.138-5.4 10.322-12.546a188 188 0 0 0 .393-2.914zM114.095 220.293q.101-1.276.155-2.529l-2.33-.18a63 63 0 0 0-.343 4.082c-.814 3.128-3.886 5.2-5.597 6.431 1.893.03 6.272-1.278 7.98-5.955q.095-.906.168-1.83zM164.42 225.784q-.045 1.3-.082 2.62l-.384-.003v.26a238 238 0 0 0-.168 6.575c-.117 12.577.765 24.106 2.303 30.204.004.017-.004.064 0 .083l.839.01c.004-.015-.004-.06 0-.074 1.56-6.289 2.58-17.436 2.7-29.49a226 226 0 0 0-.03-7.288l-.016-.251-.319-.002a191 191 0 0 0-.042-2.625z"
                  style="stroke:currentcolor;stroke-width:.602784;stroke-dasharray:none;stroke-opacity:1"
                  transform="translate(-4.922 -8.177)"/>
        </g>
    </g>
</svg>