<svg xmlns="http://www.w3.org/2000/svg" width="683.352" height="953.019" viewBox="0 0 683.352 953.019"><path d="M759.5 1499.9c-25.95-3.78-51.759-21.087-64.944-43.556-5.362-9.137-10.213-23.406-11.637-34.23-.646-4.915-.898-71.774-.71-188.614l.292-181 2.168-7.593c8.48-29.688 29.275-51.865 57.702-61.533 15.187-5.166 18.39-5.374 82.57-5.374h59.722l8.663 9.97c25.107 28.892 59.325 48.72 98.674 57.179 8.99 1.933 13.447 2.255 31 2.24 18.335-.015 21.83-.298 33.102-2.679 29.874-6.31 56.14-19.109 78.952-38.473 8.608-7.306 22.248-21.545 25.261-26.37 1.118-1.79 3.701-1.867 62.175-1.86 37.904.006 63.472.407 67.51 1.061 22.699 3.678 44.086 16.397 57.64 34.278 5.959 7.862 12.588 21.786 15.546 32.654l2.314 8.5v369l-2.647 9.57c-9.058 32.753-32.14 55.655-65.774 65.265l-7.579 2.165-262 .136c-144.973.075-264.68-.253-268-.737m311.5-129.3c0-1.32-2.022-25.732-4.494-54.25-2.473-28.517-4.485-52.75-4.474-53.85.013-1.253 1.548-2.933 4.11-4.5 6.67-4.08 17.17-16.108 21.757-24.923 13.447-25.846 10.14-57.895-8.277-80.202-8.966-10.86-20.628-18.395-35.622-23.015-6.06-1.868-9.803-2.312-19.5-2.317-14.272-.01-21.257 1.594-33.5 7.671-6.822 3.387-10.283 6.003-17.532 13.253-14.036 14.038-20.177 27.839-21.193 47.63-.694 13.52 1.265 23.043 7.34 35.684 3.587 7.465 5.968 10.803 12.172 17.067 4.242 4.282 9.173 8.881 10.956 10.22l3.244 2.432-4.461 52c-2.454 28.6-4.706 53.688-5.005 55.75l-.545 3.75H1071Zm-63.5-362.218c-50.573-7.736-89.565-38.176-107.449-83.882-6.08-15.537-8.33-28.066-8.353-46.5-.028-23.042 4.526-41.883 15.089-62.415 17.44-33.902 53.342-60.966 90.24-68.026 12.158-2.326 26.54-2.937 37.943-1.611 12.124 1.41 17.1 3.159 20.507 7.207 7.065 8.396 5.084 20.131-4.5 26.668-3.128 2.133-4.18 2.308-10.477 1.742-18.25-1.64-22.928-1.732-30.66-.602-40.317 5.895-70.681 33.072-81.015 72.513-3.184 12.15-3.628 32.23-.979 44.196 3.657 16.514 10.42 30.056 21.81 43.67 7.748 9.26 17.055 16.342 29.844 22.707 15.755 7.842 22.681 9.329 43.5 9.34 16.268.009 18.134-.184 26.5-2.745 19.002-5.816 29.534-12.425 45.119-28.31L1105.737 931h6.181c3.4 0 7.397.635 8.882 1.41 5.99 3.13 11.2 11.206 11.2 17.362 0 4.395-4.77 10.892-15.319 20.863-26.94 25.465-54.346 36.958-90.181 37.82-8.8.212-17.35.179-19-.074zM744.274 862.39c.359-69.212.664-82.55 2.11-92.39 8.2-55.792 30.838-102.448 68.598-141.373 44.56-45.936 95.194-69.84 169.018-79.796 12.023-1.62 51.167-1.6 64.5.036 37.512 4.601 66.89 13.306 99 29.335 46.256 23.09 82.067 57.848 109.009 105.803 16.858 30.008 19.228 43.295 9.903 55.521-3.735 4.897-8.557 7.508-25.967 14.06-17.174 6.462-23.664 7.499-31.227 4.986-8.92-2.962-13.197-7.821-21.103-23.976-10.458-21.367-19.127-33.7-34.566-49.176-9.406-9.429-16.092-15.1-23.947-20.314-24.617-16.337-51.21-26.393-81.208-30.707-16.62-2.39-49.792-2.422-65.711-.063-43.351 6.426-77.91 22.893-105.235 50.144-21.482 21.425-35.863 46.746-43.446 76.498-4.645 18.225-4.962 24.849-4.982 104.272L829 940l-31.75.033c-29.098.03-36.625.416-49.073 2.516l-4.323.73zm267.126 70.722c-6.558-4.857-49.204-48.426-50.337-51.427-1.713-4.537-1.242-8.934 1.56-14.556 3.107-6.234 7.987-9.84 14.535-10.737 7.867-1.078 10.152.393 27.34 17.606 8.788 8.801 16.427 16.002 16.974 16.002s19.466-18.45 42.04-41l41.044-41h5.065c10.425 0 19.306 8.072 20.156 18.32.301 3.636-.05 6.287-1.098 8.266-2.277 4.304-97.7 99.128-100.994 100.36-5.477 2.05-12.038 1.31-16.285-1.834" style="fill:#000;fill-opacity:1;stroke:none" transform="translate(-682.148 -547.628)"/></svg>