<svg viewBox="0 0 425.855 396.099" xmlns="http://www.w3.org/2000/svg"><path style="fill:#000" d="M91.055 446.687c-15.692-4.198-29.467-18.941-32.886-35.196-.74-3.521-1.114-23.498-1.114-59.54 0-59.675.059-60.364 6.192-71.872 3.66-6.866 12.585-15.524 19.218-18.642 9.495-4.463 14.67-5.146 39.05-5.157 38.747-.016 82.151-2.457 98.54-5.542 13.51-2.543 11.678-.685 42-42.584 30.324-41.901 31.24-42.864 40.772-42.864 2.804 0 6.228.43 7.61.955 3.774 1.435 10.744 8.117 12.27 11.763 1.826 4.36 1.696 10.707-.297 14.561-1.47 2.844-41.056 57.554-52.034 71.915-2.394 3.132-5.776 8.475-7.515 11.873-5.111 9.987-5.993 10.382-42.135 18.88l-31.671 7.448v51.166c0 29.807-.417 53.415-1 56.552-3.21 17.313-16.85 31.833-34.256 36.467-7.58 2.018-55.035 1.88-62.744-.183zm122.503-4.702c4.04-7.35 7.077-15.716 8.043-22.157l.68-4.538 124.637.004c123.247.004 124.673.026 127.947 2.022 4.15 2.53 6.19 7.306 6.19 14.492 0 6.157-1.444 9.705-5.486 13.482l-2.675 2.5-131.407.261-131.407.261zm9.73-86.408.267-24.713 3-.794c1.65-.437 10.425-2.588 19.5-4.779 9.474-2.287 19.22-5.321 22.89-7.124 7.921-3.893 18.497-14.135 23.107-22.377 1.845-3.3 15.36-22.425 30.034-42.5 30.503-41.732 31.196-42.77 33.887-50.757 6.799-20.182 1.447-41.043-14.39-56.086-11.58-11-23.718-16.157-38.028-16.157-13.598 0-25.824 4.702-35.485 13.646-3.618 3.35-15.397 18.494-30.55 39.28l-24.66 33.829-4.624.634c-9.758 1.337-21.442 1.904-21.016 1.019l4.1-8.513c6.631-13.774 8.205-21.28 8.157-38.895-.038-13.988-.31-16.378-2.791-24.5-7.847-25.69-26.493-46.748-50.626-57.175-13.53-5.845-18.808-6.825-36.756-6.825h-16.25v-3.569c0-1.962.718-6.012 1.595-9 1.98-6.746 9.727-14.822 16.022-16.702 5.412-1.616 346.81-1.794 352.608-.183 5.568 1.546 11.846 6.85 14.72 12.436l2.556 4.964.295 143.527c.218 106.215-.005 144.56-.858 147.504-1.843 6.353-6.236 11.82-12.09 15.043-4.95 2.726-6.238 2.967-17.347 3.25-11.595.297-11.912.25-9.373-1.389 4.628-2.987 5.873-6.357 5.873-15.903v-8.713l-3.883-3.883-3.882-3.882-40.368.004c-38.273.004-40.534.105-43.569 1.956-5.132 3.129-6.547 6.988-6.145 16.755.34 8.295.41 8.497 4.082 11.862l3.735 3.423H223.02ZM101.903 226.254C82.27 223.24 64.81 208.306 58.009 188.71c-6.57-18.928-1.371-41.025 13.039-55.42 11.026-11.015 23.18-16 39.007-16 15.817 0 27.965 4.965 39.115 15.985 10.8 10.676 15.943 23.083 15.963 38.515.025 19.634-9.603 36.821-26.578 47.443-9.56 5.982-24.624 8.867-36.651 7.021z" transform="translate(-55.2 -52.214)"/></svg>