<svg xmlns="http://www.w3.org/2000/svg" xml:space="preserve" viewBox="0 0 288.92 391.069"><path d="M-37.566 343.318c-.532-.288-1.206-.988-1.5-1.556-.474-.917-.533-21.602-.528-186.17.004-146.23.097-185.315.44-185.985.24-.466.884-1.18 1.432-1.588.93-.69 1.523-.747 8.996-.855l8-.116v-11.996l1.152-1.03 1.153-1.03h195.595l35.57 35.543c19.564 19.548 35.798 35.97 36.076 36.495.437.823.506 21.062.506 148.634v147.683l-1.032 1.03-1.03 1.032h-12.049v8.66c0 9.528-.135 10.247-2.106 11.266-.92.476-15.966.534-135.372.521-118.134-.012-134.454-.077-135.303-.538m270.215-.797c.432-.237.988-.784 1.235-1.217.36-.631.468-29.568.55-147.797.054-80.856-.025-147.483-.177-148.059-.335-1.265-.692-1.628-43.275-44.021-27.131-27.01-33.233-32.918-34.174-33.085-.63-.113-44.458-.16-97.395-.104l-96.251.1-.852.99-.851.99V155.53c0 131.812.11 185.417.38 185.923.21.39.823.896 1.362 1.123 1.458.613 268.33.559 269.448-.055m-264.676-6.5c-.093-.242-.127-81.642-.078-180.887l.09-180.446h185.209l.083 35.984c.089 37.898.054 37.112 1.667 38.039.531.305 10.11.46 36.703.59l35.983.176v286.808l-129.745.09c-103.611.07-129.779-.001-129.912-.354m258.775-143.316V50.006H191.1c-39.14 0-37.107.112-38.253-2.105-.468-.905-.535-5.509-.535-36.683V-24.43H-31.133v359.833h257.88Zm-154.775-9.613c.47-8.207 4.426-14.988 10.688-18.324 1.162-.618 3.535-1.537 5.273-2.04 1.739-.504 3.298-1.054 3.466-1.221.171-.172-.577-1.264-1.706-2.492-6.138-6.676-6.19-16.39-.119-22.07 5.97-5.583 15.7-4.598 20.262 2.053 2.112 3.079 2.693 5.235 2.543 9.433-.12 3.362-.242 3.927-1.325 6.106-.665 1.338-2.028 3.25-3.075 4.314-1.035 1.052-1.882 2.148-1.882 2.435 0 .32.583.674 1.5.91 5.917 1.522 9.047 3.188 12.17 6.476 3.618 3.808 5.618 8.685 5.986 14.596l.203 3.263H71.776Zm53.254.44c-.223-5.68-2.51-11.138-6.22-14.849-2.836-2.835-5.437-4.255-10.073-5.495-2.277-.61-2.993-.957-3.283-1.593-.328-.72-.152-1.041 1.562-2.843 4.334-4.553 5.741-9.342 4.335-14.745-2.205-8.468-10.909-12.478-18.73-8.63-4.117 2.027-6.822 6.339-7.111 11.34-.269 4.639 1.146 8.46 4.378 11.824 1.451 1.51 1.91 2.233 1.83 2.888-.093.78-.436.96-3.25 1.705-1.729.457-4.19 1.345-5.467 1.972-4.423 2.17-8.073 6.85-9.835 12.607-.759 2.479-1.358 7.462-.972 8.086.169.273 7.882.358 26.585.294l26.348-.09zm35.055-141.234c-.288-.466-.707-59.4-.43-60.504.149-.591.446-.935.75-.867.925.204 61.207 60.279 61.207 60.996 0 .66-.692.675-30.67.675-16.87 0-30.755-.135-30.857-.3m34.716-26.261C180.93 2.017 167.477-11.34 165.1-13.648l-4.322-4.195V41.54l29.898-.007 29.898-.007zm52.891 305.737.731-.93V25.52l-35.542-35.643c-19.549-19.603-35.78-35.803-36.072-35.998-.63-.424-193.656-.51-195.168-.087-1.71.479-2.035 1.73-2.035 7.827v5.485l84.226.058c101.118.07 92.773.004 94.104.734.582.319 18.171 17.615 39.087 38.435l38.03 37.855-.018 139.26-.018 139.258h11.944z" style="fill:#000;fill-opacity:1;fill-rule:nonzero;stroke:none;stroke-opacity:1" transform="translate(39.594 47.008)"/><path d="M-37.566 343.318c-.532-.288-1.206-.988-1.5-1.556-.474-.917-.533-21.602-.528-186.17.004-146.23.097-185.315.44-185.985.24-.466.884-1.18 1.432-1.588.93-.69 1.523-.747 8.996-.855l8-.116v-11.996l1.152-1.03 1.153-1.03h195.595l35.57 35.543c19.564 19.548 35.798 35.97 36.076 36.495.437.823.506 21.062.506 148.634v147.683l-1.032 1.03-1.03 1.032h-12.049v8.66c0 9.528-.135 10.247-2.106 11.266-.92.476-15.966.534-135.372.521-118.134-.012-134.454-.077-135.303-.538m270.215-.797c.432-.237.988-.784 1.235-1.217.36-.631.468-29.568.55-147.797.054-80.856-.025-147.483-.177-148.059-.335-1.265-.692-1.628-43.275-44.021-27.131-27.01-33.233-32.918-34.174-33.085-.63-.113-44.458-.16-97.395-.104l-96.251.1-.852.99-.851.99V155.53c0 131.812.11 185.417.38 185.923.21.39.823.896 1.362 1.123 1.458.613 268.33.559 269.448-.055m-264.676-6.5c-.093-.242-.127-81.642-.078-180.887l.09-180.446h185.209l.083 35.984c.089 37.898.054 37.112 1.667 38.039.531.305 10.11.46 36.703.59l35.983.176v286.808l-129.745.09c-103.611.07-129.779-.001-129.912-.354m258.775-143.316V50.006H191.1c-39.14 0-37.107.112-38.253-2.105-.468-.905-.535-5.509-.535-36.683V-24.43H-31.133v359.833h257.88Zm-154.775-9.613c.47-8.207 4.426-14.988 10.688-18.324 1.162-.618 3.535-1.537 5.273-2.04 1.739-.504 3.298-1.054 3.466-1.221.171-.172-.577-1.264-1.706-2.492-6.138-6.676-6.19-16.39-.119-22.07 5.97-5.583 15.7-4.598 20.262 2.053 2.112 3.079 2.693 5.235 2.543 9.433-.12 3.362-.242 3.927-1.325 6.106-.665 1.338-2.028 3.25-3.075 4.314-1.035 1.052-1.882 2.148-1.882 2.435 0 .32.583.674 1.5.91 5.917 1.522 9.047 3.188 12.17 6.476 3.618 3.808 5.618 8.685 5.986 14.596l.203 3.263H71.776Zm53.254.44c-.223-5.68-2.51-11.138-6.22-14.849-2.836-2.835-5.437-4.255-10.073-5.495-2.277-.61-2.993-.957-3.283-1.593-.328-.72-.152-1.041 1.562-2.843 4.334-4.553 5.741-9.342 4.335-14.745-2.205-8.468-10.909-12.478-18.73-8.63-4.117 2.027-6.822 6.339-7.111 11.34-.269 4.639 1.146 8.46 4.378 11.824 1.451 1.51 1.91 2.233 1.83 2.888-.093.78-.436.96-3.25 1.705-1.729.457-4.19 1.345-5.467 1.972-4.423 2.17-8.073 6.85-9.835 12.607-.759 2.479-1.358 7.462-.972 8.086.169.273 7.882.358 26.585.294l26.348-.09zm35.055-141.234c-.288-.466-.707-59.4-.43-60.504.149-.591.446-.935.75-.867.925.204 61.207 60.279 61.207 60.996 0 .66-.692.675-30.67.675-16.87 0-30.755-.135-30.857-.3m34.716-26.261C180.93 2.017 167.477-11.34 165.1-13.648l-4.322-4.195V41.54l29.898-.007 29.898-.007zm52.891 305.737.731-.93V25.52l-35.542-35.643c-19.549-19.603-35.78-35.803-36.072-35.998-.63-.424-193.656-.51-195.168-.087-1.71.479-2.035 1.73-2.035 7.827v5.485l84.226.058c101.118.07 92.773.004 94.104.734.582.319 18.171 17.615 39.087 38.435l38.03 37.855-.018 139.26-.018 139.258h11.944z" style="display:inline;fill:#000;stroke:none" transform="translate(39.594 47.008)"/><path d="M-20.197-32.394c-4.04.53-8.274.203-12.347.203-1.844 0-4.114-.366-5.496 1.139-1.525 1.66-1.207 4.198-1.207 6.27v73.377c0 70.905.011 141.851.353 212.725.093 19.244-.353 38.572-.353 57.856v15.17c0 2.273-.434 5.314.764 7.37 2.067 3.549 12.236 1.801 15.817 1.801h233.538c6.461 0 14.527 1.313 20.815-.139 5.222-1.206 3.175-12.413 3.175-16.441V51.418c0-2.056.45-4.747-.257-6.702-1.555-4.302-8.225-9.306-11.535-12.308-7.784-7.06-14.948-14.885-22.429-22.27-9.703-9.58-19.286-19.283-28.926-28.923-3.972-3.972-8.63-10.652-13.764-13.027-4.23-1.957-10.945-.732-15.517-.732H22.137c-13.767 0-28.693-1.64-42.334.15m172.862 7.611v67.381c0 2.048-.153 4.333 1.49 5.858 1.609 1.494 3.897 1.197 5.918 1.197H227.1l.352 195.44v90.664H127.97l-159.455.352-.353-360.892zm8.113 6.35c13.94 11.691 26.311 25.866 39.141 38.747 6.956 6.984 15.87 13.532 21.537 21.578h-61.03V-.44c0-5.045-1.59-13.363.352-17.992" style="display:inline;fill:#000;fill-opacity:1;stroke:none" transform="translate(39.594 47.008)"/><path d="M891.617 691.767v-525.34L745.46 21.316c-119.858-119-147.515-145.13-153.703-145.214-71.27-.964-281.606-2.05-450.685-2.328l-215.019-.352.808-22.951.808-22.951 369.98-.706 369.98-.706 135.64 135.62 135.642 135.62v555.48c0 305.513-.76 557.459-1.69 559.879-1.342 3.498-6.19 4.4-23.646 4.4h-21.958z" style="fill:#000;fill-opacity:1;fill-rule:nonzero;stroke:none;stroke-width:0;stroke-linecap:round;stroke-miterlimit:3.9;stroke-opacity:1" transform="translate(39.594 47.008)scale(.26458)"/><path d="M275.21 698.742c-.782-2.037-.083-9.676 1.553-16.976 7.746-34.564 29.28-57.288 60.737-64.091 12.323-2.665 13.712-7.938 4.862-18.456-20.45-24.302-22.485-51.468-5.537-73.876 12.711-16.806 43.548-22.368 60.916-10.989 10.904 7.145 21.344 22.991 22.928 34.802 2.303 17.167-1.23 29.32-13.128 45.153-7.003 9.321-10.043 15.658-8.439 17.59 1.38 1.662 9.5 5.399 18.045 8.303 29.597 10.06 50.421 36.2 53.633 67.323l1.54 14.92h-97.845c-78.884 0-98.12-.718-99.266-3.703" style="fill:#000;fill-opacity:1;fill-rule:nonzero;stroke:none;stroke-width:0;stroke-linecap:round;stroke-miterlimit:3.9;stroke-opacity:1" transform="translate(39.594 47.008)scale(.26458)"/></svg>