<svg xmlns="http://www.w3.org/2000/svg" viewBox="0 0 263.41 317.5"><g style="stroke:none"><g style="stroke:none"><path d="M50 50h150v50H50z" style="fill:#000;stroke:none;stroke-width:0;stroke-linecap:round;stroke-miterlimit:3.9" transform="translate(-87.776 -87.776)scale(1.75551)"/><path d="M51.156 245.477-24.7 114.089h151.714z" style="fill:#000;stroke:none;stroke-width:0;stroke-linecap:round;stroke-miterlimit:3.9" transform="matrix(1.73569 0 0 1.75551 42.873 -113.438)"/><path d="M124.97 230.709V100.104H50.42s12.56 81.979 74.55 130.605" style="fill:#000;stroke:none;stroke-width:0;stroke-linecap:round;stroke-miterlimit:3.9" transform="translate(-87.776 -87.776)scale(1.75551)"/><path d="M124.97 230.709V100.104H50.42s12.56 81.979 74.55 130.605M125.498 229.973V99.368h74.55s-12.56 81.979-74.55 130.605" style="fill:#000;stroke:none;stroke-width:0;stroke-linecap:round;stroke-miterlimit:3.9" transform="translate(-87.776 -87.776)scale(1.75551)"/></g><g style="fill:#fff;stroke:none"><path d="M50 50h150v50H50z" style="fill:#fff;stroke:none;stroke-width:0;stroke-linecap:round;stroke-miterlimit:3.9" transform="translate(-52.246 -47.868)scale(1.47133)"/><path d="M51.156 245.477-24.7 114.089h151.714z" style="fill:#fff;stroke:none;stroke-width:0;stroke-linecap:round;stroke-miterlimit:3.9" transform="matrix(1.45471 0 0 1.47133 57.253 -69.376)"/><path d="M124.97 230.709V100.104H50.42s12.56 81.979 74.55 130.605" style="fill:#fff;stroke:none;stroke-width:0;stroke-linecap:round;stroke-miterlimit:3.9" transform="translate(-52.246 -47.868)scale(1.47133)"/><path d="M124.97 230.709V100.104H50.42s12.56 81.979 74.55 130.605M125.498 229.973V99.368h74.55s-12.56 81.979-74.55 130.605" style="fill:#fff;stroke:none;stroke-width:0;stroke-linecap:round;stroke-miterlimit:3.9" transform="translate(-52.246 -47.868)scale(1.47133)"/></g><g style="stroke:none" transform="rotate(55.284 384.074 36.336)scale(2.54078)"><ellipse cx="124.026" cy="98.448" rx="15.089" ry="14.905" style="fill:#000;stroke:none;stroke-width:0;stroke-linecap:round;stroke-miterlimit:3.9"/><ellipse cx="124.026" cy="98.448" rx="10.305" ry="10.179" style="fill:#fff;stroke:none;stroke-width:0;stroke-linecap:round;stroke-miterlimit:3.9"/><g style="stroke:none" transform="matrix(1 0 0 .51649 85.567 7.973)"><path d="M35.331 197.264h7v72.502h-7z" style="fill:#000;stroke:none;stroke-width:0;stroke-linecap:round;stroke-miterlimit:3.9"/><circle cx="38.831" cy="270.26" r="3.5" style="fill:#000;stroke:none;stroke-width:0;stroke-linecap:round;stroke-miterlimit:3.9"/></g><g style="stroke:none" transform="matrix(0 -.52683 .1773 0 89.909 152.461)"><path d="M35.331 197.264h7v72.502h-7z" style="fill:#000;stroke:none;stroke-width:0;stroke-linecap:round;stroke-miterlimit:3.9"/><circle cx="38.831" cy="270.26" r="3.5" style="fill:#000;stroke:none;stroke-width:0;stroke-linecap:round;stroke-miterlimit:3.9"/></g><g style="stroke:none" transform="matrix(0 -.52683 .1773 0 89.909 165.894)"><path d="M35.331 197.264h7v72.502h-7z" style="fill:#000;stroke:none;stroke-width:0;stroke-linecap:round;stroke-miterlimit:3.9"/><circle cx="38.831" cy="270.26" r="3.5" style="fill:#000;stroke:none;stroke-width:0;stroke-linecap:round;stroke-miterlimit:3.9"/></g><g style="stroke:none" transform="matrix(0 -.52683 .1316 0 98.925 159.178)"><path d="M35.331 197.264h7v72.502h-7z" style="fill:#000;stroke:none;stroke-width:0;stroke-linecap:round;stroke-miterlimit:3.9"/><circle cx="38.831" cy="270.26" r="3.5" style="fill:#000;stroke:none;stroke-width:0;stroke-linecap:round;stroke-miterlimit:3.9"/></g></g></g></svg>