<svg xmlns="http://www.w3.org/2000/svg" xml:space="preserve" width="1167.877" height="1200" viewBox="0 0 309.001 317.5"><path d="m80.719 145.288-1.058-.482-.975-1.081-.975-1.081-.28-1.011-.281-1.01V91.41l.29-1.059.289-1.058 1.27-1.232 1.27-1.232 1.415-.306 1.416-.306 21.96.083 21.961.082 1.091.584c.6.321 1.403.954 1.784 1.407l.692.823.409 1.406.409 1.406-.076 2.743-.076 2.744-19.843.132-19.844.133-1.15.614c-.634.337-1.673 1.094-2.31 1.682l-1.16 1.068-.733 1.493-.733 1.493-.072 20.835-.072 20.836-1.78-.006-1.78-.006z" style="fill:#000" transform="translate(-320.2 -357.834)scale(4.15037)"/><g transform="translate(-320.2 -357.834)scale(4.15037)"><path d="M94.215 100.02s-6.624.268-6.555 6.11v50.283s-.092 5.911 5.992 5.992c6.084.08 50.708 0 50.708 0s6.682.138 6.883-6.884c.201-7.021 0-49.39 0-49.39s-.23-6.11-6.11-6.11zm1.342 1.657h48.216c5.567 0 5.785 5.786 5.785 5.786s.19 40.12 0 46.77c-.19 6.648-6.518 6.517-6.518 6.517s-42.255.077-48.016 0c-5.761-.076-5.674-5.674-5.674-5.674v-47.613c-.066-5.533 6.207-5.786 6.207-5.786" style="fill:#000;fill-opacity:1;fill-rule:nonzero;stroke:none;stroke-width:0;stroke-linecap:round;stroke-miterlimit:3.9;stroke-opacity:1"/><rect width="20.51" height="3.142" x="99.898" y="114.787" rx=".345" ry=".345" style="fill:#000;fill-opacity:1;fill-rule:nonzero;stroke:none;stroke-width:0;stroke-linecap:round;stroke-miterlimit:3.9;stroke-opacity:1"/><rect width="39.555" height="3.142" x="99.99" y="124.356" rx=".345" ry=".345" style="fill:#000;fill-opacity:1;fill-rule:nonzero;stroke:none;stroke-width:0;stroke-linecap:round;stroke-miterlimit:3.9;stroke-opacity:1"/><rect width="39.555" height="3.142" x="100.174" y="133.833" rx=".345" ry=".345" style="fill:#000;fill-opacity:1;fill-rule:nonzero;stroke:none;stroke-width:0;stroke-linecap:round;stroke-miterlimit:3.9;stroke-opacity:1"/><rect width="28.607" height="3.142" x="99.346" y="143.126" rx=".345" ry=".345" style="fill:#000;fill-opacity:1;fill-rule:nonzero;stroke:none;stroke-width:0;stroke-linecap:round;stroke-miterlimit:3.9;stroke-opacity:1"/></g></svg>